PathFileType	4	(X/Y/Z)	c:/Users/goper/Files/vsCode/490R/osim_files/C05/C05_Fast_03.trc
DataRate	CameraRate	NumFrames	NumMarkers	Units                	OrigDataRate	OrigDataStartFrame	OrigNumFrames
250.00	250.00	6	36	mm	250.0	2078	3324
                Frame#	Time	LPSIS			LASIS			LTH1			LTH2			LTH3			LTH4			LLFE			LMFE			LSH1			LSH2			LSH3			LSH4			LLMAL			LMMAL			LCAL			LMTP5			LTOE			LMTP1			RPSIS			RASIS			RTH1			RTH2			RTH3			RTH4			RLFE			RMFE			RSH1			RSH2			RSH3			RSH4			RLMAL			RMMAL			RCAL			RMTP1			RTOE			RMTP5		
		X1	Y1	Z1	X2	Y2	Z2	X3	Y3	Z3	X4	Y4	Z4	X5	Y5	Z5	X6	Y6	Z6	X7	Y7	Z7	X8	Y8	Z8	X9	Y9	Z9	X10	Y10	Z10	X11	Y11	Z11	X12	Y12	Z12	X13	Y13	Z13	X14	Y14	Z14	X15	Y15	Z15	X16	Y16	Z16	X17	Y17	Z17	X18	Y18	Z18	X19	Y19	Z19	X20	Y20	Z20	X21	Y21	Z21	X22	Y22	Z22	X23	Y23	Z23	X24	Y24	Z24	X25	Y25	Z25	X26	Y26	Z26	X27	Y27	Z27	X28	Y28	Z28	X29	Y29	Z29	X30	Y30	Z30	X31	Y31	Z31	X32	Y32	Z32	X33	Y33	Z33	X34	Y34	Z34	X35	Y35	Z35	X36	Y36	Z36

2078	8.30800	-184.38251	1022.93835	375.96912	-387.64465	1000.16370	417.68018	-366.25537	682.50562	470.05362	-391.17783	626.06274	456.70117	-436.91132	709.66913	457.94708	-452.05005	651.22302	445.60181	-457.67175	540.05139	424.76221	-442.77948	535.67493	311.29703	-371.55441	360.25311	437.53232	-375.44302	316.71152	431.73358	-435.28717	358.03391	443.00388	-427.91434	315.52719	436.34738	-386.20987	95.39093	400.49435	-413.59918	108.86152	317.71207	-329.32950	67.78735	348.30219	-525.65039	41.46724	431.90820	-563.88043	67.57857	371.89838	-553.26251	52.97559	324.70087	-180.61761	1019.86548	266.18646	-369.58002	981.47980	187.15414	-283.88699	622.87531	159.30283	-305.28809	564.08173	167.14345	-357.25458	639.28412	146.30284	-368.11365	578.45380	154.86368	0.00000	0.00000	0.00000	-354.98724	479.94482	169.74046	-196.37820	443.10440	156.29399	-158.91861	412.66379	159.62367	-228.32050	387.19382	158.85689	-186.43224	367.14310	159.37752	31.29291	276.96375	185.57628	9.53501	257.39310	269.81241	84.97794	317.39639	237.82857	17.86607	111.45281	257.89944	-13.27526	106.89345	208.45796	40.04319	136.30238	148.42879
2079	8.31200	-189.80577	1024.11621	376.33588	-393.14874	1001.28729	418.04218	-369.65109	683.14514	470.25446	-394.19479	626.47852	456.89883	-440.49423	710.15369	458.37021	-455.14801	651.18402	445.72925	-460.13211	539.96875	424.75287	-445.12030	535.65002	311.40979	-373.10986	360.36951	437.95782	-376.82892	316.56924	432.48544	-436.83511	357.91235	443.07474	-429.81815	315.30466	436.49716	-386.35599	95.50602	400.41992	-413.83139	108.90335	317.69040	-329.36267	67.89519	348.28766	-525.72388	41.47262	431.90677	-563.97150	67.41386	371.87076	-553.48511	52.81408	324.85193	-186.03835	1021.07751	266.68683	-375.29355	983.15332	187.71999	-293.85281	623.79803	159.24457	-315.70810	565.43762	167.27522	-366.74527	641.19952	146.37788	-378.22675	580.50745	155.01318	0.00000	0.00000	0.00000	-366.26233	481.99310	170.02591	-208.59218	444.62634	157.12328	-171.05589	414.25562	160.40694	-240.49948	388.91080	159.12808	-198.06494	369.35864	159.19307	18.03014	277.16013	186.21777	-3.45440	257.77530	270.44781	73.23645	317.46631	238.39923	3.85958	111.85134	258.38440	-27.30006	107.71815	208.91884	26.32799	136.71664	148.89000
2080	8.31600	-195.15446	1025.26611	376.72452	-398.44806	1002.37701	418.45847	-372.85962	683.74817	470.58475	-397.10135	626.88666	457.10245	-444.08191	710.12256	458.52496	-458.29514	651.18048	445.86200	-462.51910	539.86035	424.74884	-447.38031	535.59894	311.59894	-374.63266	360.44623	438.40540	-378.22906	316.88461	432.39462	-438.34442	357.79721	443.14264	-431.03735	315.18237	436.52344	-386.46286	95.61494	400.40741	-414.01474	108.95639	317.64676	-329.42358	67.94753	348.28284	-525.72260	41.42244	431.94849	-564.04340	67.22594	371.86923	-553.69324	52.66235	325.01721	-191.40874	1022.29437	267.10541	-380.55771	984.72974	187.95799	-303.48065	625.03314	159.35631	-326.06857	566.88879	167.36835	-376.70953	643.30054	146.03056	-388.39178	582.68842	155.09534	0.00000	0.00000	0.00000	-377.56955	484.12622	170.24701	-220.57469	446.24997	158.06802	-183.11076	415.74716	161.15779	-252.70879	390.72549	159.39035	-210.92975	370.39218	159.74635	5.59908	277.41440	187.00853	-16.33844	257.94989	271.12845	60.81648	316.99323	239.15614	-10.43720	112.06891	258.80948	-41.51333	108.31799	209.42181	12.33968	136.88414	149.41121
2081	8.32000	-200.53777	1026.44336	377.06906	-403.79639	1003.48175	418.90912	-376.18637	684.35919	470.86566	-399.91275	627.32397	457.34512	-447.45380	710.21265	458.79395	-460.82812	651.03815	445.97714	-464.71085	539.76355	424.87222	-449.64407	535.50354	311.76129	-375.72659	360.70239	439.00504	-379.35770	316.76355	433.21152	-439.70862	357.66000	443.23376	-432.59332	315.02982	436.48264	-386.58856	95.70077	400.39276	-414.23532	109.01261	317.62329	-329.42734	68.04368	348.28674	-525.78705	41.35854	431.98007	-564.06836	67.05605	371.86649	-553.88654	52.52084	325.19272	-196.83249	1023.57385	267.47516	-385.87469	986.36279	188.29208	-313.30902	626.30847	159.44559	-336.36249	568.42944	167.42987	-385.81747	645.41370	146.53941	-398.17984	584.97931	155.13234	0.00000	0.00000	0.00000	-388.89133	486.34702	170.46649	-232.42116	447.83878	158.95468	-195.00781	417.17053	161.98637	-264.85953	392.44116	159.63464	-223.22891	371.92899	159.93993	-7.25702	277.27994	187.70964	-29.21545	257.98337	271.86780	48.42713	316.27921	239.90802	-25.00398	112.06118	259.23038	-55.47723	108.71088	209.16345	-1.84685	136.84218	149.92899
2082	8.32400	-205.94945	1027.54785	377.34537	-409.11893	1004.57263	419.32266	-379.39471	684.92731	471.13892	-402.65326	627.76178	457.61368	-450.72470	710.21222	458.86578	-464.09546	651.03870	446.37198	-466.76920	539.58759	425.01788	-451.67151	535.42084	311.91171	-376.91327	360.78610	439.39890	-380.51477	316.91415	433.59610	-441.02960	357.64001	443.40842	-433.39621	315.01343	436.75443	-386.72672	95.76991	400.40237	-414.39279	109.06414	317.61993	-329.49521	68.09676	348.31702	-525.90063	41.31594	431.87366	-564.11871	66.88649	371.89780	-554.06494	52.38997	325.37442	-202.30670	1024.79968	267.80624	-391.21011	988.01569	188.62984	-322.83026	627.75024	159.48407	-346.60284	570.08777	167.51334	-395.23322	647.55914	146.53004	-408.26099	587.27606	155.11195	0.00000	0.00000	0.00000	-400.08121	488.64282	170.63969	-244.34834	449.30130	159.69949	-207.31151	418.18423	162.26807	-277.03430	394.02087	159.90924	-235.60651	373.53516	160.09296	-20.09460	276.98834	188.35919	-42.35063	257.80182	272.44421	35.95587	315.28006	240.62827	-39.76839	111.90154	259.69138	-70.16650	108.94833	209.61618	-16.09702	136.52774	150.62230
2083	8.32800	-211.20625	1028.71362	377.59607	-414.45819	1005.65839	419.76062	-382.72726	685.59094	471.44714	-405.47375	628.22162	457.96570	-454.38486	710.16455	459.10638	-467.05334	651.05865	446.65015	-468.67853	539.50854	425.28909	-453.51749	535.31793	312.19061	-378.06848	360.92862	439.86542	-381.57208	316.98874	433.95941	-442.14346	357.56064	443.60199	-434.66525	314.93283	436.78860	-386.98846	95.80292	400.27499	-414.55225	109.13029	317.64597	-329.54568	68.20825	348.32333	-525.86237	41.22905	432.06750	-564.17828	66.73671	371.93665	-554.22827	52.27018	325.55829	-207.74632	1026.05774	268.14429	-396.63147	989.66907	189.03828	-332.48764	629.16974	159.52812	-356.85602	571.67383	167.57782	-404.49393	649.78406	146.53969	-417.60779	589.87384	154.59238	0.00000	0.00000	0.00000	-410.62399	491.74783	170.27205	-256.08899	450.82880	160.33276	-219.12505	419.64297	162.69014	-289.22107	395.62784	160.16568	-247.39070	375.42508	159.83012	-32.97355	276.45752	189.00070	-55.62724	257.39261	273.02463	23.10970	314.04877	241.28667	-54.66060	111.59565	260.19299	-85.09642	109.06090	210.05290	-30.99998	136.02173	151.10002
